<svg width="214" height="200" viewBox="0 0 214 200" fill="none" xmlns="http://www.w3.org/2000/svg">
<circle cx="107" cy="100" r="100" fill="#E6FCFF"/>
<mask id="mask0_9357_24918" style="mask-type:alpha" maskUnits="userSpaceOnUse" x="7" y="0" width="200" height="200">
<circle cx="107" cy="100" r="100" fill="#71C5CF"/>
</mask>
<g mask="url(#mask0_9357_24918)">
<path d="M70.1702 74.7445L69.7833 74.6046C71.6437 69.5215 71.763 65.3892 70.1332 62.3229C69.3866 61.0961 68.5028 59.9583 67.499 58.9314C66.042 57.3098 64.5397 55.6387 63.7289 53.5561C63.2627 52.1392 62.94 50.6789 62.7658 49.1974C62.6826 48.5036 62.5534 47.8161 62.3789 47.1395L62.7699 47.0078C62.9546 47.7015 63.0921 48.407 63.1815 49.1192C63.3508 50.5711 63.6652 52.0023 64.1199 53.3915C64.9019 55.3959 66.3836 57.0464 67.8242 58.6392C68.8861 59.8245 69.8821 60.9399 70.5159 62.113C72.1911 65.3027 72.0758 69.5462 70.1702 74.7445Z" fill="#7D7D7D"/>
<path d="M76.572 30.6611C76.572 40.4157 70.6246 48.3222 63.2861 48.3222C57.7132 48.3222 52.9388 43.7618 50.9673 37.2917C50.3188 35.1415 49.9928 32.907 50.0001 30.6611C50.0001 21.2358 55.5524 13.5392 62.5452 13.0288C62.7881 13.0082 63.035 13 63.2861 13C70.6246 13 76.572 20.9065 76.572 30.6611Z" fill="#606BF1"/>
<path d="M63.5124 19.6619C63.5124 29.0872 57.9602 36.7838 50.9673 37.2942C50.3188 35.1439 49.9928 32.9094 50.0001 30.6635C50.0001 21.2382 55.5524 13.5416 62.5452 13.0312C63.1938 15.1815 63.5197 17.416 63.5124 19.6619Z" fill="#6F7AFA"/>
<path d="M62.2407 48.1016C62.1013 49.2302 61.7464 50.3215 61.1953 51.3161C61.8132 51.431 62.4396 51.4943 63.068 51.5054C63.8434 51.5193 64.6183 51.4559 65.3811 51.3161C64.8686 50.7939 64.4619 50.1776 64.1834 49.501C63.9911 49.0284 63.8664 48.5309 63.813 48.0234L62.2407 48.1016Z" fill="#606BF1"/>
<path d="M14 114L106 174L197 114H14Z" fill="#55BCC8"/>
<path d="M101.232 38C72.1937 63.4089 43.0388 88.5911 14 114C75.1078 114 135.888 114.014 197 114L101.232 38Z" fill="#55BCC8"/>
<path d="M182.357 65.0898H24.8005C23.7737 65.0898 22.9414 65.9222 22.9414 66.9489V187.77C22.9414 188.797 23.7737 189.629 24.8005 189.629H182.357C183.384 189.629 184.216 188.797 184.216 187.77V66.9489C184.216 65.9222 183.384 65.0898 182.357 65.0898Z" fill="white"/>
<path d="M166.832 118.953H40.3354C38.133 118.953 36.3477 120.738 36.3477 122.941C36.3477 125.143 38.133 126.929 40.3354 126.929H166.832C169.034 126.929 170.819 125.143 170.819 122.941C170.819 120.738 169.034 118.953 166.832 118.953Z" fill="#F3F3F3"/>
<path d="M166.832 134.148H40.3354C38.133 134.148 36.3477 135.934 36.3477 138.136C36.3477 140.339 38.133 142.124 40.3354 142.124H166.832C169.034 142.124 170.819 140.339 170.819 138.136C170.819 135.934 169.034 134.148 166.832 134.148Z" fill="#F3F3F3"/>
<path d="M166.832 149.848H40.3354C38.133 149.848 36.3477 151.633 36.3477 153.835C36.3477 156.038 38.133 157.823 40.3354 157.823H166.832C169.034 157.823 170.819 156.038 170.819 153.835C170.819 151.633 169.034 149.848 166.832 149.848Z" fill="#F3F3F3"/>
<path d="M189.438 65.0045C189.262 64.7955 189.043 64.6276 188.796 64.5127C188.549 64.3979 188.279 64.3388 188.006 64.3399H22.5856C22.0926 64.3399 21.6197 64.5357 21.2711 64.8844C20.9224 65.233 20.7266 65.7059 20.7266 66.1989V193.081C20.7266 193.574 20.9224 194.047 21.2711 194.395C21.6197 194.744 22.0926 194.94 22.5856 194.94H187.988C188.481 194.94 188.954 194.744 189.302 194.395C189.651 194.047 189.847 193.574 189.847 193.081V66.1989C189.854 65.7653 189.709 65.3427 189.438 65.0045ZM183.809 188.898H26.7686V70.3819H183.809V188.898Z" fill="white"/>
<path d="M74.8582 64.3398L71.7629 70.3818H47L50.1 64.3398H74.8582Z" fill="#EA5924"/>
<path d="M189.854 79.9414V111.355L183.812 123.137V91.7279L189.854 79.9414Z" fill="#EA5924"/>
<path d="M189.854 127.551V158.965L183.812 170.746V139.337L189.854 127.551Z" fill="#238ACB"/>
<path d="M26.7764 99.1875V130.601L20.7344 142.383V110.974L26.7764 99.1875Z" fill="#EA5924"/>
<path d="M26.7764 146.797V178.211L20.7344 189.993V158.583L26.7764 146.797Z" fill="#238ACB"/>
<path d="M36.5287 64.3374L33.4334 70.3794H26.7686V83.3929L20.7266 95.1748V66.1872C20.7266 65.6941 20.9224 65.2213 21.2711 64.8726C21.6197 64.524 22.0926 64.3281 22.5856 64.3281L36.5287 64.3374Z" fill="#71C5CF"/>
<path d="M113.154 64.3398L110.064 70.3818H85.3008L88.4008 64.3398H113.154Z" fill="#71C5CF"/>
<path d="M151.464 64.3398L148.368 70.3818H123.605L126.705 64.3398H151.464Z" fill="#EA5924"/>
<path d="M183.807 75.9513V70.374H161.902L165.002 64.332H187.99C188.263 64.331 188.532 64.3901 188.78 64.5049C189.027 64.6198 189.246 64.7877 189.421 64.9967L183.807 75.9513Z" fill="#71C5CF"/>
<path d="M63.6526 109.65L61.0312 91.2031H63.8571L65.3815 103.157L67.2964 91.245H69.597L71.5536 103.157L73.0595 91.2031H75.8481L73.2454 109.65H70.5125L68.4629 97.2823L66.4365 109.65H63.6526Z" fill="#168D9B"/>
<path d="M77.8906 109.65V91.2031H85.6337V93.5688H81.2649V98.8765H84.6995V101.2H81.2649V107.303H85.6802V109.627L77.8906 109.65Z" fill="#168D9B"/>
<path d="M87.6523 109.65V91.2031H91.0219V107.326H95.4837V109.65H87.6523Z" fill="#168D9B"/>
<path d="M101.956 109.895C100.84 109.958 99.7319 109.681 98.777 109.1C98.0138 108.576 97.4491 107.81 97.1735 106.925C96.8492 105.897 96.6922 104.824 96.7088 103.746V97.1652C96.6886 96.0552 96.8455 94.9491 97.1735 93.8885C97.44 93.0083 98.0076 92.2498 98.777 91.746C99.7418 91.1936 100.846 90.9321 101.956 90.993C102.994 90.9392 104.027 91.1638 104.949 91.6437C105.661 92.0672 106.205 92.7241 106.488 93.5028C106.807 94.3973 106.965 95.3416 106.952 96.2914V97.8391H103.699V96.2449C103.7 95.779 103.674 95.3134 103.62 94.8506C103.587 94.4754 103.436 94.1204 103.188 93.8374C103.02 93.6956 102.825 93.5891 102.615 93.5244C102.405 93.4597 102.184 93.4381 101.965 93.461C101.74 93.4406 101.512 93.465 101.296 93.5328C101.08 93.6006 100.879 93.7104 100.706 93.856C100.425 94.1507 100.245 94.5264 100.19 94.9296C100.111 95.4308 100.074 95.9375 100.078 96.4448V104.457C100.066 105.013 100.119 105.568 100.236 106.112C100.314 106.494 100.518 106.838 100.817 107.088C101.151 107.325 101.556 107.442 101.965 107.418C102.182 107.44 102.4 107.417 102.607 107.349C102.814 107.281 103.004 107.17 103.164 107.023C103.421 106.724 103.583 106.355 103.629 105.963C103.694 105.472 103.725 104.976 103.722 104.481V102.821H106.976V104.299C106.992 105.285 106.846 106.266 106.543 107.204C106.276 108.016 105.742 108.714 105.028 109.184C104.096 109.718 103.028 109.965 101.956 109.895Z" fill="#168D9B"/>
<path d="M114.298 109.893C113.211 109.947 112.131 109.696 111.18 109.168C110.403 108.679 109.816 107.94 109.516 107.072C109.16 106.025 108.991 104.924 109.018 103.819V96.917C108.992 95.83 109.16 94.747 109.516 93.7194C109.82 92.8687 110.408 92.1483 111.18 91.6791C112.136 91.1649 113.214 90.9207 114.298 90.9726C115.395 90.917 116.486 91.1612 117.454 91.6791C118.221 92.1537 118.807 92.8722 119.118 93.7194C119.481 94.7454 119.654 95.8289 119.629 96.917V103.842C119.652 104.93 119.479 106.013 119.118 107.04C118.808 107.902 118.223 108.638 117.454 109.136C116.496 109.684 115.401 109.947 114.298 109.893ZM114.298 107.411C114.743 107.449 115.185 107.319 115.539 107.049C115.822 106.781 116.011 106.429 116.078 106.045C116.171 105.586 116.216 105.119 116.213 104.651V96.1641C116.218 95.6958 116.172 95.2285 116.078 94.7698C116.008 94.3975 115.819 94.0581 115.539 93.803C115.182 93.5379 114.741 93.4122 114.298 93.4498C113.867 93.4176 113.44 93.5431 113.094 93.803C112.81 94.0559 112.617 94.3958 112.546 94.7698C112.45 95.2281 112.404 95.6957 112.411 96.1641V104.655C112.408 105.123 112.45 105.59 112.537 106.05C112.595 106.436 112.783 106.79 113.071 107.054C113.423 107.318 113.859 107.446 114.298 107.411Z" fill="#168D9B"/>
<path d="M122.047 109.65L122.368 91.2031H125.853L128.47 103.975L131.203 91.2031H134.596L134.94 109.65H132.434L132.16 96.8268L129.539 109.65H127.513L124.835 96.7804L124.585 109.65H122.047Z" fill="#168D9B"/>
<path d="M137.527 109.65V91.2031H145.284V93.5688H140.915V98.8765H144.355V101.2H140.92V107.303H145.335V109.627L137.527 109.65Z" fill="#168D9B"/>
<path d="M66 200L197 114V200.322L66 200Z" fill="#71C5CF"/>
<path d="M147 200.5L14 114V199L147 200.5Z" fill="#71C5CF"/>
<path fill-rule="evenodd" clip-rule="evenodd" d="M98.273 200.056L146.684 200.175L105.897 173.801L66 199.894L98.273 200.056Z" fill="#48B1BD"/>
<path d="M-2.79009 185.164L-3 184.81C7.66416 178.492 15.7353 169.923 18.5876 161.893C19.7853 158.531 21.2711 154.341 20.448 149.249C20.3204 148.467 20.1599 147.792 19.9747 147.014C19.7359 146.014 19.4643 144.878 19.1762 143.158C18.691 140.231 18.4405 137.271 18.4271 134.305H18.8387C18.853 137.249 19.1021 140.187 19.5836 143.092C19.8676 144.8 20.1352 145.924 20.3739 146.92C20.5632 147.706 20.7237 148.385 20.8554 149.183C21.6786 154.378 20.1887 158.621 18.9745 162.033C16.0893 170.15 7.95227 178.797 -2.79009 185.164Z" fill="#7D7D7D"/>
<path d="M38.3882 114.465C38.3882 128.529 29.8107 139.929 19.2289 139.929C11.203 139.938 4.31306 133.352 1.46901 124.026C0.53962 120.924 0.0749708 117.702 0.0902066 114.465C0.0902066 100.882 8.09553 89.7697 18.1999 89.0412C18.5498 89.0124 18.9037 89 19.2659 89C29.8107 89 38.3882 100.401 38.3882 114.465Z" fill="#F4E041"/>
<path d="M19.5582 98.6041C19.5582 112.186 11.5528 123.299 1.46901 124.028C0.53962 120.926 0.0749708 117.704 0.0902066 114.467C0.0902066 100.884 8.09553 89.7715 18.1999 89.043C19.1224 92.1454 19.5801 95.3675 19.5582 98.6041Z" fill="#FCEA5B"/>
<path d="M17.7215 139.608C17.631 140.337 17.4767 141.058 17.2605 141.76C16.9976 142.618 16.6458 143.446 16.2109 144.23C17.1021 144.394 18.005 144.486 18.9109 144.506C20.03 144.527 21.1484 144.434 22.2489 144.23C21.508 143.48 20.922 142.592 20.5243 141.616C20.2461 140.934 20.0646 140.217 19.9852 139.484L17.7215 139.608Z" fill="#FCEA5B"/>
<path d="M236.729 194C214.593 194 197.223 189.337 188.728 180.584C185.181 176.901 182.38 172.566 180.48 167.818C180.265 167.212 175.317 152.792 182.052 139.344C182.712 138.024 183.372 136.93 184.011 135.878C185.336 133.699 186.587 131.638 187.392 128.097C188.217 124.357 188.283 120.491 187.585 116.725L188.121 116.629C188.837 120.472 188.769 124.42 187.923 128.236C187.102 131.864 185.83 133.957 184.483 136.178C183.85 137.225 183.19 138.325 182.54 139.602C175.913 152.873 180.786 167.061 180.995 167.657C182.868 172.334 185.629 176.603 189.125 180.23C201.006 192.465 230.531 196.619 266.18 191.07L266.26 191.607C256.492 193.158 246.62 193.958 236.729 194Z" fill="#7D7D7D"/>
<path d="M213.079 92.2979C213.079 110.683 201.874 125.569 188.039 125.569C177.538 125.569 168.538 116.983 164.825 104.78C163.601 100.727 162.986 96.5152 163 92.2818C163 74.5193 173.465 60.0142 186.644 59.0537C187.1 59.0161 187.567 59 188.039 59C201.874 59.0161 213.079 73.9183 213.079 92.2979Z" fill="#EA5924"/>
<path d="M188.492 71.5684C188.492 89.3309 178.028 103.836 164.848 104.797C163.624 100.744 163.01 96.5318 163.024 92.2984C163.024 74.536 173.488 60.0309 186.668 59.0703C187.891 63.123 188.506 67.335 188.492 71.5684Z" fill="#F0794E"/>
<path d="M186.072 125.163C185.806 127.288 185.136 129.343 184.098 131.216C186.705 131.701 189.379 131.701 191.986 131.216C190.333 129.543 189.293 127.361 189.035 125.023L186.072 125.163Z" fill="#EA5924"/>
</g>
<path d="M213.079 92.2979C213.079 110.683 201.874 125.569 188.039 125.569C177.538 125.569 168.538 116.983 164.825 104.78C163.601 100.727 162.986 96.5152 163 92.2818C163 74.5193 173.465 60.0142 186.644 59.0537C187.1 59.0161 187.567 59 188.039 59C201.874 59.0161 213.079 73.9183 213.079 92.2979Z" fill="#EA5924"/>
<path d="M188.492 71.5684C188.492 89.3309 178.028 103.836 164.848 104.797C163.624 100.744 163.01 96.5318 163.024 92.2984C163.024 74.536 173.488 60.0309 186.668 59.0703C187.891 63.123 188.506 67.335 188.492 71.5684Z" fill="#F0794E"/>
<path d="M38.3882 114.465C38.3882 128.529 29.8107 139.929 19.2289 139.929C11.203 139.938 4.31306 133.352 1.46901 124.026C0.53962 120.924 0.0749708 117.702 0.0902066 114.465C0.0902066 100.882 8.09553 89.7697 18.1999 89.0412C18.5498 89.0124 18.9037 89 19.2659 89C29.8107 89 38.3882 100.401 38.3882 114.465Z" fill="#F4E041"/>
<path d="M19.5582 98.6041C19.5582 112.186 11.5528 123.299 1.46901 124.028C0.53962 120.926 0.0749708 117.704 0.0902066 114.467C0.0902066 100.884 8.09553 89.7715 18.1999 89.043C19.1224 92.1454 19.5801 95.3675 19.5582 98.6041Z" fill="#FCEA5B"/>
<path d="M17.7215 139.608C17.631 140.337 17.4767 141.058 17.2605 141.76C16.9976 142.618 16.6458 143.446 16.2109 144.23C17.1021 144.394 18.005 144.486 18.9109 144.506C20.03 144.527 21.1484 144.434 22.2489 144.23C21.508 143.48 20.922 142.592 20.5243 141.616C20.2461 140.934 20.0646 140.217 19.9852 139.484L17.7215 139.608Z" fill="#FCEA5B"/>
</svg>
